Coordinates
version=1
nRows=10
nColumns=22
inDegrees=yes

Units are S.I. units (second, meters, Newtons, ...)
If the header above contains a line with 'inDegrees', this indicates whether rotational values are in degrees (yes) or radians (no).

endheader
time	pelvis_tilt	pelvis_list	pelvis_rotation	pelvis_tx	pelvis_ty	pelvis_tz	hip_flexion_r	hip_adduction_r	hip_rotation_r	knee_angle_r	ankle_angle_r	subtalar_angle_r	hip_flexion_l	hip_adduction_l	hip_rotation_l	knee_angle_l	ankle_angle_l	subtalar_angle_l	lumbar_extension	lumbar_bending	lumbar_rotation
      3.70000000	      4.16621938	      4.24135508	    151.06486039	      0.32060815	      0.93723429	     -0.51570431	     -0.34331252	      3.30724401	     -3.61136646	    -13.81855399	     16.99178390	      5.73006464	     34.65524579	     -8.19585986	    -11.12978106	    -33.28158583	      3.77891131	     -8.80904378	     -9.03903387	      6.15679531	      7.09351435
      3.71000000	      4.23485919	      4.29841743	    151.75021447	      0.31254697	      0.93568819	     -0.51752601	     -0.84627235	      3.33221159	     -4.16551772	    -13.87840670	     17.39109740	      5.57932185	     34.37222811	     -8.02950178	    -11.02271390	    -30.21074943	      4.24190641	     -9.01218883	     -8.92765251	      6.12898337	      7.03666909
      3.72000000	      4.30531052	      4.34415020	    152.44335004	      0.30442067	      0.93407767	     -0.51920846	     -1.29944851	      3.34386667	     -4.72763659	    -14.01642170	     17.79257491	      5.47538745	     34.10524298	     -7.85964618	    -10.97427016	    -27.32394858	      4.67584420	     -9.21299085	     -8.81281508	      6.08252064	      6.96505659
      3.73000000	      4.37863561	      4.37390173	    153.13326879	      0.29618768	      0.93241101	     -0.52079516	     -1.71280116	      3.33888359	     -5.28557485	    -14.21441366	     18.18751619	      5.42109189	     33.87645519	     -7.69574266	    -11.04874718	    -24.70086837	      5.08103400	     -9.41760369	     -8.68311797	      6.00817012	      6.88773958
      3.74000000	      4.44406717	      4.39524741	    153.81647329	      0.28782191	      0.93072318	     -0.52227535	     -2.10008335	      3.31562150	     -5.83893169	    -14.47533635	     18.56760208	      5.41951698	     33.69374351	     -7.53857053	    -11.27189126	    -22.41754644	      5.43233039	     -9.60722293	     -8.55467909	      5.91150168	      6.81046336
      3.75000000	      4.52472529	      4.40625239	    154.49362771	      0.27928676	      0.92897740	     -0.52364318	     -2.43932698	      3.27951508	     -6.40494574	    -14.80176599	     18.94744395	      5.43001474	     33.61280912	     -7.39340365	    -11.65231691	    -20.56567258	      5.73819533	     -9.73721306	     -8.39843847	      5.80440652	      6.73742703
      3.76000000	      4.51815432	      4.43862639	    155.15584679	      0.27049400	      0.92739742	     -0.52491719	     -2.87337088	      3.21474115	     -6.91764445	    -15.15412705	     19.23497505	      5.58201980	     33.49116677	     -7.24198062	    -12.16931002	    -19.14441658	      6.01944493	     -9.89910173	     -8.33469130	      5.67178921	      6.66285990
      3.77000000	      4.53596991	      4.46748222	    155.81039043	      0.26147480	      0.92577158	     -0.52608200	     -3.26600098	      3.14559079	     -7.44256081	    -15.55729822	     19.51789259	      5.70644772	     33.50091025	     -7.10981809	    -12.76590450	    -18.25196807	      6.26420413	     -9.99445542	     -8.23144211	      5.54333808	      6.60652093
      3.78000000	      4.51970834	      4.51468653	    156.44497114	      0.25220567	      0.92422662	     -0.52715726	     -3.68078756	      3.06706651	     -7.90899033	    -16.02351755	     19.72869533	      5.84175800	     33.54534582	     -6.99676065	    -13.37827190	    -17.85628963	      6.52863790	    -10.09606537	     -8.16197935	      5.41679418	      6.54943560
      3.79000000	      4.42074552	      4.59395481	    157.05646426	      0.24261828	      0.92290687	     -0.52818644	     -4.22186299	      2.97517875	     -8.31764491	    -16.46309448	     19.83900303	      6.27137492	     33.53896715	     -6.90866421	    -14.01071619	    -17.90518515	      6.68393334	    -10.24158026	     -8.17568877	      5.28007825	      6.53557655
